<svg width="3243" height="785" viewBox="0 0 3243 785" fill="none" xmlns="http://www.w3.org/2000/svg">
<g clip-path="url(#clip0_648_2261)">
<path d="M1261.56 34.4904H1202.61C1194.58 34.6206 1186.9 37.8496 1181.19 43.5042C1175.47 49.1588 1172.16 56.8025 1171.94 64.8418C1171.94 64.8418 1171.94 375.255 1171.94 450.961C1171.95 455.546 1170.38 459.995 1167.49 463.55C1164.6 467.106 1160.56 469.549 1156.07 470.464C1151.58 471.379 1146.92 470.709 1142.86 468.568C1138.81 466.427 1135.63 462.947 1133.85 458.721L1027.51 206.942C1025.07 201.563 1021.14 196.989 1016.2 193.753C1011.26 190.517 1005.5 188.752 999.594 188.662H920.315C912.042 188.662 904.108 191.951 898.258 197.804C892.407 203.658 889.121 211.597 889.121 219.876V719.986C889.121 728.264 892.407 736.203 898.258 742.057C904.108 747.911 912.042 751.199 920.315 751.199H979.257C983.353 751.199 987.41 750.392 991.195 748.823C994.979 747.255 998.418 744.956 1001.31 742.057C1004.21 739.159 1006.51 735.718 1008.08 731.931C1009.64 728.144 1010.45 724.085 1010.45 719.986V489.245C1010.41 484.656 1011.97 480.195 1014.86 476.636C1017.76 473.077 1021.81 470.644 1026.31 469.758H1030.44C1034.31 469.764 1038.09 470.913 1041.31 473.06C1044.53 475.208 1047.05 478.258 1048.54 481.83L1154.7 732.23C1157.08 737.904 1161.08 742.748 1166.2 746.153C1171.32 749.559 1177.34 751.375 1183.48 751.372H1261.56C1269.8 751.326 1277.69 748.018 1283.5 742.169C1289.32 736.32 1292.58 728.407 1292.58 720.158V64.8418C1292.36 56.7436 1288.99 49.0495 1283.2 43.3857C1277.42 37.7218 1269.65 34.532 1261.56 34.4904Z" fill="#E3883A"/>
<path d="M1261.57 0.00342544H1202.63C1194.09 -0.0420227 1185.63 1.60162 1177.72 4.83987C1169.82 8.07812 1162.64 12.8471 1156.58 18.8728C1150.53 24.8984 1145.73 32.0619 1142.45 39.9514C1139.17 47.841 1137.48 56.301 1137.48 64.8453C1137.48 64.8453 1137.48 264.544 1137.48 382.501L1058.03 194.529C1053.13 183.025 1045.01 173.188 1034.64 166.209C1024.27 159.231 1012.1 155.41 999.606 155.21H920.328C903.142 155.21 886.659 162.041 874.507 174.202C862.354 186.362 855.527 202.855 855.527 220.052V720.162C855.527 737.359 862.354 753.852 874.507 766.012C886.659 778.172 903.142 785.003 920.328 785.003H979.27C996.456 785.003 1012.94 778.172 1025.09 766.012C1037.24 753.852 1044.07 737.359 1044.07 720.162V557.54L1123.52 745.34C1128.45 757.096 1136.74 767.133 1147.35 774.19C1157.96 781.247 1170.41 785.009 1183.15 785.003H1261.57C1270.14 785.095 1278.64 783.485 1286.58 780.267C1294.52 777.049 1301.75 772.288 1307.84 766.257C1313.93 760.227 1318.76 753.048 1322.06 745.136C1325.36 737.224 1327.06 728.735 1327.06 720.162V64.8453C1327.06 56.2717 1325.36 47.7833 1322.06 39.871C1318.76 31.9587 1313.93 24.7798 1307.84 18.7495C1301.75 12.7193 1294.52 7.95756 1286.58 4.73981C1278.64 1.52207 1270.14 -0.0877821 1261.57 0.00342544ZM1292.59 720.162C1292.59 724.261 1291.78 728.32 1290.22 732.107C1288.65 735.894 1286.35 739.335 1283.45 742.233C1280.56 745.132 1277.12 747.431 1273.33 748.999C1269.55 750.568 1265.49 751.375 1261.4 751.375H1182.98C1176.92 751.277 1171.02 749.415 1166 746.015C1160.98 742.616 1157.06 737.827 1154.72 732.233L1048.21 481.488C1046.71 477.917 1044.2 474.866 1040.98 472.719C1037.76 470.571 1033.98 469.423 1030.11 469.417H1025.97C1021.47 470.302 1017.43 472.736 1014.53 476.295C1011.63 479.854 1010.07 484.315 1010.12 488.904V719.989C1010.12 728.268 1006.83 736.207 1000.98 742.061C995.133 747.914 987.198 751.203 978.925 751.203H920.328C912.055 751.203 904.12 747.914 898.27 742.061C892.42 736.207 889.134 728.268 889.134 719.989V219.879C889.134 211.601 892.42 203.662 898.27 197.808C904.12 191.954 912.055 188.666 920.328 188.666H999.606C1005.51 188.755 1011.27 190.52 1016.21 193.756C1021.16 196.992 1025.08 201.566 1027.53 206.945L1133.52 457.863C1135.12 462.246 1138.22 465.923 1142.26 468.247C1146.31 470.572 1151.04 471.394 1155.63 470.57C1160.22 469.746 1164.37 467.328 1167.36 463.742C1170.34 460.156 1171.97 455.632 1171.95 450.965C1171.95 375.776 1171.95 64.8453 1171.95 64.8453C1172.17 56.8059 1175.49 49.1622 1181.2 43.5076C1186.92 37.853 1194.59 34.624 1202.63 34.4938H1261.57C1269.67 34.5354 1277.43 37.7252 1283.22 43.3891C1289.01 49.0529 1292.37 56.747 1292.59 64.8453V720.162Z" fill="white"/>
<path d="M1896.99 644.624H1651.06C1642.81 644.579 1634.92 641.27 1629.11 635.421C1623.3 629.572 1620.03 621.659 1620.04 613.411V172.452C1619.92 168.295 1620.64 164.157 1622.14 160.282C1623.65 156.406 1625.91 152.87 1628.8 149.882C1631.69 146.894 1635.15 144.514 1638.97 142.882C1642.79 141.249 1646.9 140.397 1651.06 140.376H1719.99C1728.27 140.376 1736.2 137.087 1742.05 131.233C1747.9 125.38 1751.19 117.44 1751.19 109.162V64.8418C1750.96 56.7138 1747.58 48.9942 1741.75 43.3257C1735.93 37.6572 1728.12 34.4873 1719.99 34.4904H1392.54C1384.44 34.532 1376.68 37.7218 1370.89 43.3857C1365.1 49.0495 1361.74 56.7436 1361.52 64.8418V109.162C1361.52 117.44 1364.81 125.38 1370.66 131.233C1376.51 137.087 1384.44 140.376 1392.71 140.376H1461.65C1465.79 140.42 1469.88 141.289 1473.68 142.931C1477.49 144.574 1480.92 146.958 1483.79 149.943C1486.67 152.929 1488.91 156.457 1490.41 160.322C1491.9 164.186 1492.62 168.31 1492.5 172.452V613.411C1492.5 617.51 1491.69 621.568 1490.13 625.356C1488.56 629.143 1486.26 632.584 1483.36 635.482C1480.47 638.38 1477.03 640.68 1473.24 642.248C1469.46 643.817 1465.4 644.624 1461.31 644.624H1392.37C1384.16 644.715 1376.31 648.044 1370.53 653.888C1364.76 659.732 1361.52 667.619 1361.52 675.838V720.158C1361.52 724.257 1362.33 728.316 1363.89 732.103C1365.46 735.89 1367.76 739.331 1370.66 742.23C1373.55 745.128 1376.99 747.427 1380.78 748.996C1384.56 750.564 1388.62 751.372 1392.71 751.372H1897.34C1901.43 751.372 1905.49 750.564 1909.27 748.996C1913.06 747.427 1916.5 745.128 1919.39 742.23C1922.29 739.331 1924.59 735.89 1926.16 732.103C1927.72 728.316 1928.53 724.257 1928.53 720.158V675.838C1928.53 671.71 1927.71 667.622 1926.12 663.813C1924.54 660.003 1922.21 656.547 1919.27 653.644C1916.34 650.741 1912.86 648.449 1909.04 646.901C1905.21 645.352 1901.12 644.579 1896.99 644.624Z" fill="#E3883A"/>
<path d="M1896.99 611H1653.47V174.007H1719.99C1737.18 174.007 1753.66 167.176 1765.82 155.015C1777.97 142.855 1784.8 126.362 1784.8 109.165V64.8453C1784.8 47.6481 1777.97 31.1554 1765.82 18.9952C1753.66 6.83496 1737.18 0.00342544 1719.99 0.00342544H1392.54C1383.97 -0.0877821 1375.47 1.52207 1367.53 4.73981C1359.59 7.95756 1352.36 12.7193 1346.27 18.7495C1340.18 24.7798 1335.35 31.9587 1332.05 39.871C1328.75 47.7833 1327.05 56.2717 1327.05 64.8453V109.165C1327.05 126.362 1333.88 142.855 1346.03 155.015C1358.18 167.176 1374.67 174.007 1391.85 174.007H1458.38V611H1392.37C1383.82 610.931 1375.33 612.558 1367.41 615.786C1359.49 619.014 1352.28 623.78 1346.21 629.808C1340.14 635.835 1335.32 643.007 1332.03 650.908C1328.74 658.808 1327.05 667.283 1327.05 675.841V720.162C1327.05 737.359 1333.88 753.852 1346.03 766.012C1358.18 778.172 1374.67 785.003 1391.85 785.003H1896.48C1904.99 785.003 1913.41 783.326 1921.27 780.068C1929.14 776.809 1936.28 772.033 1942.3 766.012C1948.31 759.991 1953.09 752.842 1956.34 744.976C1959.6 737.109 1961.28 728.677 1961.28 720.162V675.841C1961.28 658.734 1954.52 642.319 1942.48 630.173C1930.44 618.028 1914.09 611.136 1896.99 611ZM1928.19 720.162C1928.19 724.261 1927.38 728.32 1925.81 732.107C1924.24 735.894 1921.95 739.335 1919.05 742.233C1916.15 745.132 1912.71 747.431 1908.93 748.999C1905.15 750.568 1901.09 751.375 1896.99 751.375H1392.37C1384.16 751.285 1376.31 747.956 1370.53 742.112C1364.76 736.268 1361.52 728.381 1361.52 720.162V675.841C1361.52 667.563 1364.81 659.624 1370.66 653.77C1376.51 647.916 1384.44 644.628 1392.71 644.628H1461.65C1465.75 644.628 1469.8 643.82 1473.59 642.252C1477.37 640.683 1480.81 638.384 1483.71 635.486C1486.61 632.587 1488.9 629.146 1490.47 625.359C1492.04 621.572 1492.85 617.513 1492.85 613.414V172.455C1492.85 168.356 1492.04 164.297 1490.47 160.51C1488.9 156.723 1486.61 153.282 1483.71 150.384C1480.81 147.485 1477.37 145.186 1473.59 143.617C1469.8 142.049 1465.75 141.241 1461.65 141.241H1392.71C1388.54 141.243 1384.42 140.408 1380.57 138.786C1376.73 137.163 1373.25 134.787 1370.35 131.796C1367.44 128.806 1365.16 125.262 1363.64 121.375C1362.13 117.488 1361.4 113.336 1361.52 109.165V64.8453C1361.74 56.7765 1365.08 49.1077 1370.83 43.4486C1376.58 37.7894 1384.3 34.5799 1392.37 34.4938H1719.82C1728.1 34.4938 1736.03 37.7823 1741.88 43.6361C1747.73 49.4898 1751.02 57.4291 1751.02 65.7075V109.165C1751.02 117.414 1747.75 125.327 1741.94 131.176C1736.13 137.025 1728.24 140.334 1719.99 140.379H1651.06C1646.9 140.4 1642.79 141.252 1638.97 142.885C1635.15 144.517 1631.69 146.898 1628.8 149.886C1625.91 152.874 1623.65 156.409 1622.14 160.285C1620.64 164.161 1619.92 168.299 1620.04 172.455V613.414C1620.04 617.513 1620.84 621.572 1622.41 625.359C1623.98 629.146 1626.28 632.587 1629.17 635.486C1632.07 638.384 1635.51 640.683 1639.29 642.252C1643.08 643.82 1647.13 644.628 1651.23 644.628H1897.16C1905.44 644.628 1913.37 647.916 1919.22 653.77C1925.07 659.624 1928.36 667.563 1928.36 675.841L1928.19 720.162Z" fill="white"/>
<path d="M2608.6 210.566C2606.65 204.179 2602.7 198.587 2597.33 194.614C2591.96 190.641 2585.46 188.495 2578.79 188.492H2472.28C2465.6 188.495 2459.1 190.641 2453.74 194.614C2448.37 198.587 2444.42 204.179 2442.46 210.566L2287.35 710.676C2285.89 715.353 2285.55 720.308 2286.36 725.141C2287.17 729.973 2289.1 734.548 2292.01 738.493C2294.91 742.439 2298.7 745.646 2303.07 747.854C2307.44 750.062 2312.27 751.209 2317.17 751.202H2380.59C2387.54 751.228 2394.29 748.936 2399.78 744.688C2405.28 740.439 2409.2 734.478 2410.92 727.749L2433.16 641.523C2434.88 634.793 2438.8 628.832 2444.3 624.584C2449.79 620.336 2456.55 618.043 2463.49 618.07H2584.13C2591.1 618.053 2597.87 620.37 2603.37 624.652C2608.86 628.934 2612.77 634.934 2614.46 641.695L2636.52 727.921C2638.22 734.683 2642.12 740.683 2647.62 744.965C2653.12 749.246 2659.89 751.564 2666.86 751.547H2735.79C2740.69 751.554 2745.52 750.407 2749.89 748.199C2754.26 745.991 2758.05 742.784 2760.96 738.838C2763.86 734.892 2765.79 730.318 2766.6 725.485C2767.41 720.653 2767.07 715.698 2765.61 711.021L2608.6 210.566ZM2567.07 506.148C2564.16 509.917 2560.43 512.966 2556.15 515.059C2551.88 517.152 2547.18 518.234 2542.42 518.22H2504.51C2499.72 518.245 2494.99 517.168 2490.69 515.072C2486.39 512.976 2482.62 509.917 2479.69 506.132C2476.76 502.348 2474.74 497.939 2473.78 493.247C2472.82 488.555 2472.96 483.705 2474.17 479.073L2477.45 466.312C2482.62 445.79 2488.48 424.406 2494.68 404.057C2496.47 397.383 2500.43 391.496 2505.94 387.329C2511.45 383.162 2518.19 380.953 2525.09 381.052C2532 381.151 2538.67 383.552 2544.06 387.875C2549.45 392.199 2553.24 398.197 2554.83 404.919C2560.52 428.028 2565.86 450.102 2570 466.312L2573.27 479.073C2574.39 483.772 2574.39 488.666 2573.28 493.366C2572.18 498.066 2569.99 502.443 2566.9 506.148H2567.07Z" fill="#E3883A"/>
<path d="M2798.36 709.471C2797.86 706.554 2797.17 703.674 2796.29 700.849L2641.18 200.739C2637.05 187.413 2628.73 175.78 2617.46 167.575C2606.18 159.37 2592.56 155.033 2578.62 155.211H2472.11C2458.27 155.193 2444.78 159.624 2433.64 167.851C2422.5 176.078 2414.3 187.667 2410.24 200.911L2255.13 701.021C2252.1 710.729 2251.4 721.013 2253.08 731.043C2254.76 741.073 2258.77 750.568 2264.79 758.76C2270.81 766.951 2278.68 773.611 2287.75 778.2C2296.82 782.789 2306.84 785.179 2317 785.177H2380.42C2394.84 785.204 2408.85 780.418 2420.25 771.579C2431.64 762.74 2439.76 750.351 2443.33 736.374L2464.53 651.182H2581.55L2603.26 736.201C2606.83 750.179 2614.95 762.567 2626.35 771.407C2637.74 780.246 2651.75 785.031 2666.17 785.005H2735.11C2750.99 784.992 2766.31 779.16 2778.19 768.612C2790.07 758.063 2797.67 743.527 2799.56 727.751C2799.42 725.224 2799.42 722.69 2799.56 720.163L2798.36 709.471ZM2759.58 738.615C2756.69 742.581 2752.91 745.805 2748.53 748.024C2744.16 750.242 2739.32 751.391 2734.42 751.377H2665.48C2658.51 751.393 2651.74 749.076 2646.25 744.794C2640.75 740.513 2636.84 734.513 2635.15 727.751L2613.09 641.525C2611.39 634.764 2607.49 628.764 2601.99 624.482C2596.49 620.2 2589.72 617.883 2582.76 617.899H2462.11C2455.17 617.873 2448.42 620.166 2442.92 624.414C2437.43 628.662 2433.51 634.623 2431.78 641.353L2409.55 727.578C2407.82 734.308 2403.9 740.269 2398.41 744.517C2392.91 748.766 2386.16 751.058 2379.22 751.032H2315.79C2310.9 751.039 2306.07 749.891 2301.7 747.684C2297.32 745.476 2293.53 742.269 2290.63 738.323C2287.73 734.377 2285.79 729.803 2284.99 724.97C2284.18 720.138 2284.52 715.183 2285.98 710.506L2441.09 210.396C2443.04 204.008 2447 198.417 2452.36 194.444C2457.73 190.47 2464.23 188.325 2470.9 188.322H2577.41C2584.09 188.325 2590.59 190.47 2595.96 194.444C2601.32 198.417 2605.27 204.008 2607.23 210.396L2762.34 710.506C2764.13 715.076 2764.82 720.006 2764.34 724.893C2763.86 729.779 2762.23 734.482 2759.58 738.615Z" fill="white"/>
<path d="M2569.31 465.625C2565.18 449.415 2559.83 427.341 2554.15 404.232C2552.55 397.51 2548.76 391.512 2543.37 387.188C2537.99 382.865 2531.31 380.464 2524.41 380.365C2517.5 380.266 2510.76 382.475 2505.25 386.642C2499.75 390.809 2495.79 396.696 2494 403.37C2488.31 423.719 2482.45 445.103 2476.76 465.625L2473.49 478.387C2472.27 483.018 2472.14 487.868 2473.09 492.56C2474.05 497.252 2476.07 501.661 2479.01 505.446C2481.94 509.23 2485.7 512.289 2490.01 514.385C2494.31 516.481 2499.04 517.558 2503.82 517.533H2541.74C2546.5 517.551 2551.21 516.476 2555.5 514.389C2559.79 512.303 2563.54 509.261 2566.47 505.498C2569.4 501.735 2571.42 497.35 2572.4 492.68C2573.37 488.01 2573.26 483.179 2572.07 478.559L2569.31 465.625ZM2507.27 483.905L2509.85 473.903C2514.16 456.658 2518.99 439.412 2523.81 422.167C2528.64 441.827 2533.12 460.279 2536.74 473.903L2539.32 483.733L2507.27 483.905Z" fill="white"/>
<path d="M3178.03 644.625H2990.17C2981.91 644.579 2974 641.276 2968.16 635.432C2962.32 629.588 2959.02 621.675 2958.98 613.411V109.162C2958.93 100.898 2955.63 92.9847 2949.79 87.1408C2943.95 81.2969 2936.04 77.9938 2927.78 77.9485H2863.33C2855.07 77.9938 2847.16 81.2969 2841.32 87.1408C2835.48 92.9847 2832.18 100.898 2832.13 109.162V720.158C2832.18 728.423 2835.48 736.336 2841.32 742.18C2847.16 748.024 2855.07 751.327 2863.33 751.372H3178.03C3186.29 751.327 3194.19 748.024 3200.04 742.18C3205.88 736.336 3209.18 728.423 3209.22 720.158V675.838C3209.18 667.574 3205.88 659.661 3200.04 653.817C3194.19 647.973 3186.29 644.67 3178.03 644.625Z" fill="#E3883A"/>
<path d="M3178.02 611.001H2992.58V109.167C2992.54 91.9838 2985.69 75.5174 2973.55 63.3671C2961.41 51.2167 2944.95 44.3706 2927.78 44.3251H2863.32C2846.15 44.3706 2829.7 51.2167 2817.55 63.3671C2805.41 75.5174 2798.57 91.9838 2798.52 109.167V720.163C2798.66 737.318 2805.53 753.733 2817.65 765.864C2829.78 777.995 2846.18 784.87 2863.32 785.005H3178.02C3195.2 784.96 3211.65 778.113 3223.8 765.963C3235.94 753.813 3242.78 737.346 3242.83 720.163V675.843C3242.78 658.66 3235.94 642.194 3223.8 630.043C3211.65 617.893 3195.2 611.047 3178.02 611.001ZM3209.22 720.163C3209.17 728.428 3205.87 736.341 3200.03 742.185C3194.19 748.029 3186.28 751.332 3178.02 751.377H2863.15C2854.89 751.332 2846.98 748.029 2841.14 742.185C2835.3 736.341 2832 728.428 2831.96 720.163V109.167C2832 100.902 2835.3 92.9894 2841.14 87.1455C2846.98 81.3016 2854.89 77.9984 2863.15 77.9532H2927.61C2935.87 77.9984 2943.78 81.3016 2949.62 87.1455C2955.46 92.9894 2958.76 100.902 2958.8 109.167V613.243C2958.85 621.508 2962.15 629.421 2967.99 635.265C2973.83 641.109 2981.74 644.412 2990 644.457H3177.85C3186.11 644.502 3194.02 647.805 3199.86 653.649C3205.7 659.493 3209 667.406 3209.05 675.671L3209.22 720.163Z" fill="white"/>
<path d="M2209.62 47.079H2131.21C2124.37 47.0895 2117.72 49.3361 2112.28 53.4766C2106.83 57.6172 2102.89 63.4248 2101.05 70.015L2051.93 246.778L2031.59 324.381L2010.91 246.433L1962.31 70.015C1960.47 63.4248 1956.53 57.6172 1951.08 53.4766C1945.64 49.3361 1938.99 47.0895 1932.15 47.079H1853.73C1845.47 47.1243 1837.57 50.4274 1831.73 56.2713C1825.89 62.1152 1822.58 70.0283 1822.54 78.2927V534.6C1822.54 542.878 1825.83 550.818 1831.68 556.671C1837.53 562.525 1845.46 565.814 1853.73 565.814H1897.16C1905.44 565.814 1913.37 562.525 1919.22 556.671C1925.07 550.818 1928.36 542.878 1928.36 534.6V369.219C1928.39 364.524 1930.08 359.991 1933.13 356.426C1936.18 352.861 1940.4 350.496 1945.03 349.751C1949.67 349.006 1954.41 349.93 1958.43 352.358C1962.44 354.786 1965.47 358.56 1966.96 363.01L1991.95 439.234C1993.99 445.497 1997.95 450.955 2003.28 454.827C2008.6 458.699 2015.02 460.786 2021.6 460.79H2038.83C2045.38 460.702 2051.73 458.556 2056.98 454.656C2062.24 450.757 2066.14 445.301 2068.13 439.062L2094.84 356.112C2096.09 352.108 2098.59 348.609 2101.97 346.127C2105.35 343.645 2109.44 342.309 2113.63 342.316H2116.73C2121.48 342.905 2125.86 345.21 2129.03 348.798C2132.21 352.387 2133.96 357.011 2133.97 361.803V578.575C2133.97 586.853 2137.25 594.793 2143.1 600.646C2148.95 606.5 2156.89 609.789 2165.16 609.789H2210.31C2218.41 609.52 2226.08 606.113 2231.71 600.289C2237.33 594.464 2240.48 586.677 2240.47 578.575V78.4652C2240.48 70.2299 2237.24 62.3241 2231.47 56.4527C2225.7 50.5813 2217.85 47.2147 2209.62 47.079Z" fill="#E3883A"/>
<path d="M2274.96 578.582V78.472C2274.96 69.9051 2273.26 61.4226 2269.98 53.5122C2266.69 45.6017 2261.87 38.4192 2255.8 32.3776C2249.73 26.3359 2242.53 21.5542 2234.61 18.3073C2226.68 15.0604 2218.2 13.4123 2209.64 13.4577H2131.22C2116.96 13.342 2103.06 17.9223 2091.66 26.4925C2080.26 35.0627 2072 47.1469 2068.14 60.8819L2031.09 194.532L1994.21 60.8819C1990.4 47.3174 1982.29 35.3582 1971.1 26.805C1959.91 18.2519 1946.24 13.5677 1932.16 13.4577H1853.75C1836.57 13.5032 1820.12 20.3494 1807.98 32.4997C1795.83 44.6501 1788.99 61.1164 1788.95 78.2995V534.607C1788.99 551.79 1795.83 568.256 1807.98 580.406C1820.12 592.557 1836.57 599.403 1853.75 599.448H1897.18C1914.35 599.403 1930.81 592.557 1942.95 580.406C1955.09 568.256 1961.93 551.79 1961.98 534.607V455.279C1966.95 466.989 1975.25 476.978 1985.86 484C1996.46 491.022 2008.89 494.768 2021.61 494.77H2038.84C2052.46 494.808 2065.74 490.544 2076.78 482.585C2087.83 474.627 2096.09 463.38 2100.37 450.45V578.927C2100.42 596.11 2107.26 612.576 2119.4 624.727C2131.54 636.877 2148 643.723 2165.17 643.769H2210.33C2227.53 643.677 2243.99 636.764 2256.11 624.544C2268.22 612.324 2275 595.795 2274.96 578.582ZM2240.49 578.582C2240.49 586.86 2237.2 594.8 2231.35 600.653C2225.5 606.507 2217.57 609.796 2209.29 609.796H2164.14C2155.87 609.796 2147.93 606.507 2142.08 600.653C2136.23 594.8 2132.94 586.86 2132.94 578.582V362.155C2132.94 357.363 2131.18 352.738 2128.01 349.15C2124.84 345.561 2120.46 343.256 2115.71 342.668H2112.61C2108.41 342.661 2104.33 343.996 2100.95 346.479C2097.57 348.961 2095.07 352.46 2093.82 356.464L2068.14 439.068C2066.13 445.392 2062.15 450.907 2056.79 454.815C2051.43 458.722 2044.96 460.818 2038.33 460.797H2021.09C2014.51 460.793 2008.1 458.706 2002.77 454.834C1997.45 450.962 1993.49 445.504 1991.45 439.241L1966.46 363.017C1964.96 358.567 1961.94 354.792 1957.92 352.364C1953.91 349.936 1949.16 349.013 1944.53 349.758C1939.9 350.503 1935.68 352.868 1932.62 356.433C1929.57 359.998 1927.88 364.531 1927.85 369.225V534.607C1927.85 538.706 1927.05 542.765 1925.48 546.552C1923.91 550.339 1921.61 553.78 1918.72 556.678C1915.82 559.577 1912.38 561.876 1908.6 563.444C1904.81 565.013 1900.76 565.82 1896.66 565.82H1853.23C1845.02 565.73 1837.17 562.401 1831.39 556.557C1825.62 550.713 1822.38 542.826 1822.38 534.607V78.2995C1822.43 70.0351 1825.73 62.122 1831.57 56.2781C1837.41 50.4342 1845.31 47.1311 1853.57 47.0858H1931.99C1938.83 47.0963 1945.48 49.3429 1950.92 53.4834C1956.37 57.624 1960.31 63.4316 1962.15 70.0219L2010.92 246.267L2031.61 324.216L2051.94 246.612L2101.06 69.8494C2102.9 63.2591 2106.84 57.4515 2112.29 53.311C2117.73 49.1704 2124.38 46.9239 2131.22 46.9133H2209.64C2217.87 47.0491 2225.71 50.4157 2231.48 56.2871C2237.25 62.1585 2240.49 70.0643 2240.49 78.2995V578.582Z" fill="white"/>
<path d="M526.34 253.163C549.755 253.163 568.737 234.17 568.737 210.74C568.737 187.31 549.755 168.317 526.34 168.317C502.925 168.317 483.944 187.31 483.944 210.74C483.944 234.17 502.925 253.163 526.34 253.163Z" fill="#E3883A"/>
<path d="M526.337 286.788C541.369 286.788 556.064 282.328 568.563 273.971C581.061 265.615 590.803 253.737 596.555 239.84C602.308 225.944 603.813 210.653 600.881 195.9C597.948 181.148 590.709 167.597 580.08 156.961C569.451 146.325 555.908 139.081 541.165 136.147C526.421 133.213 511.14 134.719 497.252 140.475C483.364 146.231 471.494 155.979 463.142 168.485C454.791 180.992 450.333 195.695 450.333 210.737C450.333 230.907 458.341 250.251 472.594 264.513C486.848 278.776 506.18 286.788 526.337 286.788ZM526.337 168.314C534.722 168.314 542.919 170.802 549.891 175.463C556.864 180.125 562.298 186.75 565.507 194.502C568.715 202.254 569.555 210.784 567.919 219.013C566.283 227.243 562.245 234.802 556.316 240.735C550.387 246.668 542.832 250.708 534.608 252.345C526.384 253.982 517.86 253.142 510.113 249.931C502.366 246.72 495.744 241.282 491.086 234.306C486.427 227.329 483.94 219.127 483.94 210.737C483.94 199.486 488.407 188.695 496.358 180.739C504.309 172.783 515.093 168.314 526.337 168.314Z" fill="white"/>
<path d="M758.668 253.163C782.083 253.163 801.065 234.17 801.065 210.74C801.065 187.31 782.083 168.317 758.668 168.317C735.253 168.317 716.271 187.31 716.271 210.74C716.271 234.17 735.253 253.163 758.668 253.163Z" fill="#E3883A"/>
<path d="M758.312 286.788C773.344 286.788 788.038 282.328 800.537 273.971C813.036 265.615 822.778 253.737 828.53 239.84C834.283 225.944 835.788 210.653 832.855 195.9C829.923 181.148 822.684 167.597 812.055 156.961C801.425 146.325 787.883 139.081 773.139 136.147C758.396 133.213 743.114 134.719 729.226 140.475C715.339 146.231 703.468 155.979 695.117 168.485C686.766 180.992 682.308 195.695 682.308 210.737C682.308 230.907 690.316 250.251 704.569 264.513C718.822 278.776 738.154 286.788 758.312 286.788ZM800.708 210.737C800.708 219.127 798.222 227.329 793.563 234.306C788.905 241.282 782.283 246.72 774.536 249.931C766.789 253.142 758.265 253.982 750.041 252.345C741.816 250.708 734.262 246.668 728.333 240.735C722.404 234.802 718.366 227.243 716.73 219.013C715.094 210.784 715.933 202.254 719.142 194.502C722.351 186.75 727.785 180.125 734.757 175.463C741.73 170.802 749.927 168.314 758.312 168.314C763.908 168.268 769.458 169.332 774.642 171.444C779.826 173.555 784.54 176.673 788.514 180.617C792.487 184.561 795.641 189.253 797.793 194.422C799.945 199.592 801.053 205.137 801.053 210.737H800.708Z" fill="white"/>
<path d="M795.034 666.703H720.236C712.717 665.918 705.808 662.204 701.003 656.363C696.198 650.523 693.883 643.025 694.557 635.49V481.663C694.473 477.22 695.113 472.793 696.453 468.557L698.349 463.211L703.174 460.106C712.321 454.789 722.476 451.441 732.99 450.277C739.066 449.826 744.959 447.998 750.224 444.931C752.355 443.101 754.111 440.876 755.395 438.378C757.222 432.819 758.039 426.979 757.807 421.132V419.408C758.718 404.648 758.718 389.847 757.807 375.088C757.183 367.897 754.394 361.065 749.81 355.493C745.225 349.92 739.06 345.869 732.128 343.874C703.448 334.769 673.45 330.514 643.371 331.285C612.266 330.371 581.225 334.625 551.511 343.874C544.726 346.125 538.714 350.25 534.171 355.773C529.627 361.296 526.736 367.992 525.832 375.088C524.878 385.816 524.878 396.608 525.832 407.336C525.832 412.165 525.832 416.304 525.832 419.58C525.757 427.161 528.18 434.555 532.726 440.619C533.536 441.694 534.46 442.677 535.483 443.551L538.069 445.62C542.916 448.305 548.246 450.005 553.752 450.622C562.806 452.002 571.587 454.795 579.776 458.899L586.497 462.521L588.221 469.936C588.985 473.738 589.331 477.613 589.255 481.49V635.317C589.93 642.852 587.614 650.35 582.809 656.191C578.004 662.031 571.095 665.746 563.576 666.531H499.808L356.935 143.83C354.931 137.581 350.999 132.128 345.704 128.255C340.409 124.382 334.023 122.288 327.464 122.274H220.611C214.001 122.263 207.56 124.365 202.228 128.274C196.896 132.182 192.951 137.693 190.968 144.003L34.479 710.679C32.9894 715.352 32.6215 720.311 33.405 725.153C34.1886 729.995 36.1015 734.584 38.9888 738.548C41.8761 742.512 45.6564 745.74 50.0231 747.969C54.3899 750.198 59.2201 751.365 64.1222 751.377H127.89C134.838 751.571 141.647 749.412 147.215 745.249C152.783 741.086 156.783 735.163 158.567 728.441L203.204 573.235C205.273 566.904 209.323 561.408 214.754 557.557C220.185 553.706 226.71 551.706 233.364 551.851H310.23C317.227 551.913 324.004 554.302 329.496 558.642C334.987 562.981 338.88 569.025 340.562 575.821L384.51 728.096C386.165 734.907 390.051 740.968 395.548 745.312C401.045 749.656 407.838 752.034 414.843 752.067H795.034C802.553 751.282 809.462 747.568 814.267 741.727C819.072 735.886 821.388 728.388 820.713 720.853V697.917C821.388 690.382 819.072 682.884 814.267 677.044C809.462 671.203 802.553 667.489 795.034 666.703ZM315.572 439.757C312.665 443.526 308.93 446.574 304.656 448.668C300.383 450.761 295.685 451.843 290.927 451.829H252.667C247.914 451.82 243.227 450.726 238.961 448.628C234.696 446.53 230.967 443.485 228.057 439.725C225.147 435.965 223.135 431.59 222.173 426.933C221.211 422.276 221.325 417.461 222.507 412.855L225.781 399.921C230.09 382.676 234.915 365.43 239.741 345.943L241.809 338.011C243.567 331.349 247.479 325.456 252.935 321.251C258.391 317.047 265.083 314.767 271.969 314.767C278.855 314.767 285.548 317.047 291.004 321.251C296.459 325.456 300.371 331.349 302.13 338.011L321.087 412.682C322.32 417.315 322.463 422.17 321.507 426.868C320.55 431.565 318.519 435.977 315.572 439.757Z" fill="#E3883A"/>
<path d="M795.028 633.073H728.159V485.454C731.433 485.454 735.052 483.902 738.672 483.385C750.419 482.251 761.657 478.027 771.245 471.141L773.485 469.244C778.95 464.421 783.403 458.559 786.583 451.999C790.066 442.919 791.819 433.269 791.754 423.544V421.819C792.762 405.51 792.762 389.153 791.754 372.843C790.576 359.482 785.53 346.754 777.235 336.218C768.94 325.682 757.755 317.794 745.048 313.52C712.464 302.9 678.315 297.885 644.055 298.689C608.577 297.569 573.177 302.646 539.442 313.692C527.297 318.127 516.585 325.78 508.45 335.834C500.314 345.888 495.062 357.965 493.254 370.774C492.007 383.85 492.007 397.016 493.254 410.093C493.254 414.059 493.254 417.508 493.254 420.44C493.191 435.267 497.905 449.72 506.696 461.656C508.86 464.623 511.345 467.342 514.107 469.761C515.859 471.36 517.7 472.857 519.622 474.245C528.393 479.977 538.354 483.633 548.748 484.937L557.021 486.661V634.107H526.344L389.33 134.687C385.355 121.365 377.183 109.684 366.034 101.387C354.884 93.0895 341.354 88.6194 327.459 88.6429H220.605C206.776 88.5859 193.295 92.9811 182.153 101.179C171.012 109.377 162.801 120.944 158.734 134.17L3.6239 701.364C0.690545 711.054 0.0658188 721.297 1.79976 731.272C3.53369 741.247 7.57811 750.678 13.6091 758.808C19.64 766.938 27.4899 773.542 36.53 778.091C45.57 782.639 55.5491 785.007 65.6678 785.003H129.435C143.678 785.101 157.551 780.462 168.874 771.816C180.197 763.17 188.33 751.006 191.996 737.234L236.116 584.614H309.018L352.793 736.026C356.352 749.975 364.448 762.343 375.807 771.179C387.165 780.015 401.139 784.818 415.526 784.83H795.028C811.473 784.069 826.946 776.818 838.058 764.665C849.171 752.511 855.016 736.446 854.315 719.988V697.915C855.016 681.457 849.171 665.392 838.058 653.238C826.946 641.085 811.473 633.833 795.028 633.073ZM820.707 719.299C821.382 726.834 819.067 734.332 814.262 740.172C809.457 746.013 802.548 749.727 795.028 750.512H414.665C407.66 750.48 400.867 748.102 395.37 743.757C389.873 739.413 385.987 733.353 384.332 726.542L340.384 574.267C338.425 567.787 334.435 562.11 329.005 558.073C323.574 554.036 316.99 551.854 310.224 551.848H233.359C226.535 551.839 219.899 554.081 214.478 558.227C209.056 562.374 205.152 568.193 203.371 574.784L158.734 729.991C156.978 736.596 153.081 742.432 147.654 746.583C142.227 750.734 135.577 752.965 128.746 752.927H64.8061C59.662 753.118 54.5505 752.034 49.9273 749.769C45.3041 747.504 41.3129 744.129 38.3096 739.946C35.3063 735.762 33.3843 730.9 32.715 725.793C32.0457 720.686 32.6498 715.493 34.4735 710.676L189.583 144C191.631 137.459 195.785 131.78 201.397 127.85C207.008 123.919 213.762 121.958 220.605 122.271H327.459C334.069 122.26 340.509 124.362 345.841 128.271C351.174 132.18 355.119 137.69 357.102 144L499.803 666.701H563.57C571.09 665.916 577.998 662.201 582.803 656.361C587.609 650.52 589.924 643.022 589.249 635.487V481.66C589.326 477.783 588.979 473.908 588.215 470.106L586.492 462.691L579.77 459.069C571.582 454.965 562.8 452.172 553.746 450.791C548.24 450.174 542.911 448.475 538.063 445.79L535.478 443.721C534.455 442.847 533.53 441.864 532.72 440.789C528.174 434.725 525.751 427.331 525.827 419.75C525.827 416.473 525.827 412.507 525.827 407.506C524.873 396.778 524.873 385.986 525.827 375.258C526.669 368.1 529.532 361.33 534.08 355.741C538.627 350.153 544.672 345.975 551.506 343.699C581.22 334.45 612.261 330.196 643.365 331.11C673.445 330.339 703.442 334.594 732.123 343.699C739.151 345.605 745.428 349.617 750.111 355.197C754.794 360.776 757.658 367.656 758.319 374.913C759.229 389.672 759.229 404.473 758.319 419.233V420.957C758.551 426.804 757.733 432.644 755.906 438.202C754.622 440.701 752.866 442.926 750.736 444.756C745.471 447.823 739.577 449.651 733.501 450.102C722.988 451.266 712.832 454.614 703.686 459.931L698.86 463.035L696.964 468.381C695.625 472.618 694.984 477.045 695.069 481.488V635.315C694.394 642.85 696.709 650.348 701.514 656.188C706.32 662.029 713.228 665.743 720.748 666.528H795.545C803.065 667.314 809.974 671.028 814.779 676.869C819.584 682.709 821.899 690.207 821.225 697.742L820.707 719.299Z" fill="white"/>
<path d="M302.125 338.355C300.367 331.693 296.455 325.8 290.999 321.596C285.544 317.391 278.851 315.111 271.965 315.111C265.079 315.111 258.386 317.391 252.93 321.596C247.475 325.8 243.563 331.693 241.804 338.355L239.736 346.288C234.911 364.912 230.257 383.02 225.776 400.265L222.502 413.199C221.32 417.805 221.206 422.62 222.168 427.277C223.13 431.934 225.143 436.31 228.052 440.07C230.962 443.83 234.692 446.875 238.957 448.972C243.222 451.07 247.91 452.165 252.662 452.173H290.75C295.503 452.165 300.19 451.07 304.456 448.972C308.721 446.875 312.45 443.83 315.36 440.07C318.27 436.31 320.282 431.934 321.244 427.277C322.206 422.62 322.092 417.805 320.911 413.199L302.125 338.355ZM255.764 418.2L258.35 408.198C262.658 390.953 267.139 373.707 271.792 356.462L287.648 418.89L255.764 418.2Z" fill="white"/>
</g>
<defs>
<clipPath id="clip0_648_2261">
<rect width="3243" height="785" fill="white"/>
</clipPath>
</defs>
</svg>
